# Blender v2.79 (sub 0) OBJ File: ''
# www.blender.org
mtllib testo.mtl
o Shape_IndexedFaceSet
v 2.103534 6.455978 -7.429144
v -7.731765 -0.025743 6.876744
v 2.103534 -0.025743 6.876744
v -7.731765 6.455978 6.876744
v -7.731765 -0.025743 -7.429144
v 2.103534 6.455978 6.876744
v 2.103534 -0.025743 -7.429144
v -7.731765 6.455978 -7.429144
vn -1.0000 0.0000 0.0000
vn 0.0000 0.0000 1.0000
vn 0.0000 -1.0000 0.0000
vn 1.0000 0.0000 0.0000
vn 0.0000 1.0000 0.0000
vn 0.0000 0.0000 -1.0000
usemtl Shape
s off
f 5//1 4//1 8//1
f 2//2 3//2 4//2
f 3//3 2//3 5//3
f 2//1 4//1 5//1
f 3//4 1//4 6//4
f 4//2 3//2 6//2
f 1//5 4//5 6//5
f 1//4 3//4 7//4
f 5//6 1//6 7//6
f 3//3 5//3 7//3
f 4//5 1//5 8//5
f 1//6 5//6 8//6
o SketchUp_GM_ID12.001
v -7.620000 0.085387 -7.317379
v 1.909763 0.085387 -6.414092
v -7.620000 6.248062 -7.317379
v 1.909763 0.085387 -7.317379
v 1.909763 6.248062 -7.317379
v 1.909763 6.248062 -6.414092
v 1.909763 2.419012 -6.414092
v -4.186237 5.184437 -6.414092
v -6.858000 5.184437 -6.414092
v 1.909763 2.419012 -3.651842
v 1.909763 0.085387 -3.651842
v -6.858000 0.085387 -6.414092
v -7.620000 0.085387 -6.414092
v -6.858000 0.085387 5.606420
v -7.620000 6.248062 -6.414092
v -6.858000 6.248062 6.764977
v -6.858000 6.248062 -6.414092
v -4.186237 3.523912 -6.414092
v -6.858000 5.541624 2.444158
v -6.858000 5.184437 -3.651842
v -4.186237 0.085387 -6.414092
v -4.186237 0.085387 -3.651842
v -6.858000 3.523912 -3.651842
v -6.858000 0.085387 -3.651842
v -7.620000 0.085387 6.764977
v -7.620000 6.248062 6.764977
v -6.858000 0.085387 2.444158
v -6.858000 0.085387 6.764977
v 1.909763 0.085387 6.764977
v 1.909763 6.248062 5.606420
v 1.909763 6.181386 -3.651842
v -4.186237 3.523912 -3.651842
v -6.858000 6.248062 5.606420
v -6.858000 5.541624 5.606420
v 1.909763 5.541624 5.606420
v -4.186237 5.541624 5.606420
v -4.186237 0.085387 2.444158
v 1.909763 0.085387 5.606420
v 1.909763 5.541624 2.444158
v 1.909763 0.085387 2.444158
v 1.909763 6.248062 6.764977
v -4.186237 4.346237 5.606420
v -4.186237 0.085387 5.606420
v -4.186237 6.181386 -3.651842
v -4.186237 5.541624 2.444158
v -6.858000 4.346237 2.444158
v -4.186237 4.346237 2.444158
vn 1.0000 0.0000 0.0000
vn 0.0000 -1.0000 0.0000
vn 0.0000 0.0000 -1.0000
vn 0.0000 1.0000 0.0000
vn -0.0000 0.0000 1.0000
vn -1.0000 0.0000 0.0000
vn 0.7188 0.0000 0.6952
vn 0.1783 0.9840 0.0000
vn 0.0000 0.9910 -0.1337
vn 0.7639 0.0000 -0.6454
vn 0.0000 0.9945 0.1044
vn -0.1924 0.9813 0.0000
usemtl material
s off
f 12//7 15//7 10//7
f 15//7 12//7 14//7
f 14//7 12//7 13//7
f 12//8 21//8 9//8
f 21//8 12//8 20//8
f 20//8 12//8 29//8
f 29//8 12//8 10//8
f 11//9 12//9 9//9
f 12//9 11//9 13//9
f 25//10 11//10 23//10
f 11//10 25//10 13//10
f 13//10 25//10 14//10
f 14//11 26//11 15//11
f 26//11 14//11 16//11
f 16//11 14//11 17//11
f 17//11 14//11 25//11
f 15//11 29//11 10//11
f 29//11 15//11 26//11
f 10//7 18//7 19//7
f 18//7 10//7 15//7
f 10//8 30//8 29//8
f 30//8 10//8 19//8
f 29//8 32//8 20//8
f 32//8 29//8 30//8
f 26//11 20//11 29//11
f 20//11 26//11 17//11
f 17//11 26//11 16//11
f 17//11 21//11 20//11
f 21//11 17//11 23//11
f 23//11 17//11 25//11
f 20//8 33//8 21//8
f 33//8 20//8 36//8
f 36//8 20//8 32//8
f 36//10 32//10 35//10
f 36//10 35//10 22//10
f 11//12 21//12 23//12
f 21//12 11//12 9//12
f 24//10 23//10 34//10
f 23//10 24//10 25//10
f 25//10 24//10 41//10
f 26//13 28//13 31//13
f 28//13 26//13 16//13
f 18//14 26//14 40//14
f 26//14 18//14 15//14
f 31//7 27//7 54//7
f 27//7 41//7 42//7
f 41//7 27//7 25//7
f 25//7 27//7 28//7
f 28//7 27//7 31//7
f 25//7 28//7 17//7
f 16//10 17//10 28//10
f 26//12 30//12 40//12
f 30//12 26//12 29//12
f 19//7 47//7 48//7
f 47//7 19//7 39//7
f 39//12 19//12 18//12
f 40//9 19//9 30//9
f 19//9 40//9 18//9
f 19//8 45//8 30//8
f 45//8 19//8 48//8
f 30//8 35//8 32//8
f 35//8 30//8 45//8
f 31//9 30//9 32//9
f 30//9 31//9 40//9
f 20//7 31//7 32//7
f 31//7 20//7 28//7
f 28//7 20//7 17//7
f 23//12 33//12 34//12
f 33//12 23//12 21//12
f 24//11 33//11 36//11
f 33//11 24//11 34//11
f 32//7 54//7 35//7
f 54//7 32//7 31//7
f 45//8 22//8 35//8
f 22//8 45//8 51//8
f 35//7 42//7 22//7
f 42//7 35//7 27//7
f 27//11 35//11 54//11
f 22//7 24//7 36//7
f 24//7 22//7 41//7
f 41//7 22//7 42//7
f 51//8 36//8 22//8
f 36//8 51//8 37//8
f 37//8 51//8 46//8
f 49//10 41//10 24//10
f 41//10 49//10 38//10
f 26//10 31//10 40//10
f 40//9 39//9 18//9
f 39//9 40//9 52//9
f 55//15 31//15 54//15
f 31//15 55//15 40//15
f 41//9 44//9 42//9
f 44//9 41//9 43//9
f 43//9 41//9 38//9
f 43//9 50//9 44//9
f 44//10 27//10 42//10
f 54//16 44//16 50//16
f 44//16 54//16 27//16
f 40//12 45//12 55//12
f 45//12 40//12 30//12
f 47//17 52//17 53//17
f 52//17 47//17 39//17
f 48//7 43//7 46//7
f 43//7 48//7 47//7
f 47//11 45//11 48//11
f 45//11 47//11 55//11
f 48//8 51//8 45//8
f 51//8 48//8 46//8
f 54//9 45//9 35//9
f 45//9 54//9 55//9
f 49//11 36//11 37//11
f 36//11 49//11 24//11
f 45//7 50//7 51//7
f 50//7 45//7 55//7
f 42//9 51//9 22//9
f 51//9 42//9 50//9
f 50//9 42//9 44//9
f 50//9 46//9 51//9
f 46//9 50//9 43//9
f 46//7 49//7 37//7
f 49//7 46//7 38//7
f 38//7 46//7 43//7
f 52//12 55//12 53//12
f 55//12 52//12 40//12
f 55//10 54//10 50//10
f 43//18 55//18 50//18
f 55//18 43//18 47//18
f 53//11 55//11 47//11
o SketchUp_ID12
v 1.909763 0.085387 -7.317379
v 1.909763 2.419012 -6.414092
v 1.909763 0.085387 -6.414092
v 1.909763 6.248062 -6.414092
v 1.909763 6.248062 -7.317379
v 1.909763 0.085387 -7.317379
v -7.620000 0.085387 -6.414092
v -7.620000 0.085387 -7.317379
v -6.858000 0.085387 -6.414092
v -4.186237 0.085387 -6.414092
v 1.909763 0.085387 -6.414092
v -7.620000 6.248062 -7.317379
v 1.909763 0.085387 -7.317379
v -7.620000 0.085387 -7.317379
v 1.909763 6.248062 -7.317379
v -6.858000 6.248062 -6.414092
v -7.620000 6.248062 -7.317379
v -7.620000 6.248062 -6.414092
v 1.909763 6.248062 -7.317379
v 1.909763 6.248062 -6.414092
v 1.909763 6.248062 -6.414092
v -4.186237 3.523912 -6.414092
v 1.909763 2.419012 -6.414092
v -4.186237 5.184437 -6.414092
v -6.858000 5.184437 -6.414092
v -6.858000 6.248062 -6.414092
v -4.186237 0.085387 -6.414092
v 1.909763 0.085387 -6.414092
v 1.909763 2.419012 -3.651842
v 1.909763 0.085387 -3.651842
v -4.186237 0.085387 -3.651842
v 1.909763 0.085387 -3.651842
v -6.858000 0.085387 -3.651842
v -6.858000 0.085387 -6.414092
v -7.620000 0.085387 -6.414092
v -7.620000 6.248062 -6.414092
v -7.620000 0.085387 6.764977
v -6.858000 0.085387 6.764977
v -6.858000 0.085387 2.444158
v -6.858000 0.085387 5.606420
v -7.620000 6.248062 -7.317379
v -7.620000 0.085387 -6.414092
v -7.620000 6.248062 -6.414092
v -7.620000 0.085387 -7.317379
v -6.858000 6.248062 6.764977
v -7.620000 6.248062 -6.414092
v -7.620000 6.248062 6.764977
v -6.858000 6.248062 -6.414092
v -6.858000 6.248062 5.606420
v -4.186237 3.523912 -6.414092
v -6.858000 5.184437 -3.651842
v -6.858000 3.523912 -3.651842
v -4.186237 5.184437 -6.414092
v 1.909763 2.419012 -3.651842
v -4.186237 3.523912 -6.414092
v -4.186237 3.523912 -3.651842
v 1.909763 2.419012 -6.414092
v -6.858000 3.523912 -3.651842
v -6.858000 5.541624 2.444158
v -6.858000 4.346237 2.444158
v -6.858000 6.248062 5.606420
v -6.858000 5.541624 5.606420
v -6.858000 6.248062 -6.414092
v -6.858000 5.184437 -3.651842
v -6.858000 5.184437 -6.414092
v -4.186237 5.184437 -6.414092
v -6.858000 5.184437 -6.414092
v -6.858000 5.184437 -3.651842
v -4.186237 3.523912 -6.414092
v -4.186237 0.085387 -3.651842
v -4.186237 3.523912 -3.651842
v -4.186237 0.085387 -6.414092
v 1.909763 5.541624 2.444158
v 1.909763 0.085387 2.444158
v 1.909763 6.181386 -3.651842
v -4.186237 3.523912 -3.651842
v 1.909763 0.085387 -3.651842
v -4.186237 0.085387 -3.651842
v 1.909763 2.419012 -3.651842
v -4.186237 0.085387 2.444158
v 1.909763 0.085387 2.444158
v -6.858000 3.523912 -3.651842
v -6.858000 0.085387 -3.651842
v -6.858000 0.085387 -6.414092
v -6.858000 0.085387 -3.651842
v -7.620000 0.085387 6.764977
v -7.620000 6.248062 6.764977
v -6.858000 6.248062 6.764977
v -7.620000 0.085387 6.764977
v -6.858000 0.085387 6.764977
v -7.620000 6.248062 6.764977
v -6.858000 0.085387 2.444158
v -4.186237 0.085387 5.606420
v -6.858000 0.085387 5.606420
v -6.858000 6.248062 6.764977
v -6.858000 0.085387 6.764977
v 1.909763 0.085387 6.764977
v 1.909763 0.085387 5.606420
v 1.909763 6.248062 6.764977
v -6.858000 6.248062 5.606420
v -6.858000 6.248062 6.764977
v 1.909763 6.248062 5.606420
v -4.186237 3.523912 -6.414092
v -6.858000 3.523912 -3.651842
v -4.186237 3.523912 -3.651842
v 1.909763 6.181386 -3.651842
v -4.186237 6.181386 -3.651842
v -4.186237 4.346237 2.444158
v -6.858000 3.523912 -3.651842
v -6.858000 4.346237 2.444158
v -4.186237 3.523912 -3.651842
v -6.858000 6.248062 5.606420
v -4.186237 5.541624 5.606420
v -6.858000 5.541624 5.606420
v 1.909763 5.541624 5.606420
v 1.909763 6.248062 5.606420
v -4.186237 4.346237 5.606420
v -4.186237 5.541624 5.606420
v -6.858000 5.541624 2.444158
v -6.858000 5.541624 5.606420
v -6.858000 4.346237 2.444158
v -4.186237 5.541624 5.606420
v -4.186237 4.346237 5.606420
v -6.858000 5.541624 2.444158
v -4.186237 0.085387 2.444158
v -4.186237 4.346237 2.444158
v 1.909763 5.541624 2.444158
v -4.186237 6.181386 -3.651842
v -4.186237 5.541624 2.444158
v 1.909763 6.181386 -3.651842
v 1.909763 5.541624 5.606420
v 1.909763 0.085387 5.606420
v 1.909763 5.541624 2.444158
v -4.186237 0.085387 2.444158
v 1.909763 0.085387 2.444158
v -4.186237 4.346237 2.444158
v -6.858000 4.346237 2.444158
v -4.186237 0.085387 2.444158
v -6.858000 0.085387 2.444158
v -4.186237 4.346237 2.444158
v 1.909763 6.248062 6.764977
v 1.909763 0.085387 6.764977
v -4.186237 0.085387 2.444158
v -4.186237 4.346237 5.606420
v -4.186237 0.085387 5.606420
v -4.186237 4.346237 2.444158
v -4.186237 0.085387 5.606420
v -6.858000 0.085387 5.606420
v 1.909763 0.085387 5.606420
v 1.909763 6.248062 6.764977
v 1.909763 0.085387 6.764977
v 1.909763 6.248062 5.606420
v -4.186237 6.181386 -3.651842
v -4.186237 5.541624 2.444158
v -4.186237 4.346237 2.444158
v -6.858000 4.346237 2.444158
v -4.186237 4.346237 5.606420
v 1.909763 5.541624 5.606420
v -4.186237 4.346237 2.444158
v -4.186237 4.346237 5.606420
v 1.909763 5.541624 2.444158
v -4.186237 5.541624 2.444158
vn 1.0000 0.0000 0.0000
vn 0.0000 -1.0000 0.0000
vn 0.0000 0.0000 -1.0000
vn 0.0000 1.0000 0.0000
vn -0.0000 0.0000 1.0000
vn -1.0000 0.0000 0.0000
vn 0.7188 0.0000 0.6952
vn 0.1783 0.9840 0.0000
vn 0.0000 0.9910 -0.1337
vn 0.7639 0.0000 -0.6454
vn 0.0000 0.9945 0.1044
vn -0.1924 0.9813 0.0000
usemtl material
s off
f 56//19 57//19 58//19
f 57//19 56//19 59//19
f 59//19 56//19 60//19
f 61//20 62//20 63//20
f 62//20 61//20 64//20
f 64//20 61//20 65//20
f 65//20 61//20 66//20
f 67//21 68//21 69//21
f 68//21 67//21 70//21
f 71//22 72//22 73//22
f 72//22 71//22 74//22
f 74//22 71//22 75//22
f 76//23 77//23 78//23
f 77//23 76//23 79//23
f 79//23 76//23 80//23
f 80//23 76//23 81//23
f 78//23 82//23 83//23
f 82//23 78//23 77//23
f 58//19 84//19 85//19
f 84//19 58//19 57//19
f 66//20 86//20 65//20
f 86//20 66//20 87//20
f 65//20 88//20 64//20
f 88//20 65//20 86//20
f 77//23 89//23 82//23
f 89//23 77//23 80//23
f 80//23 77//23 79//23
f 80//23 90//23 89//23
f 90//23 80//23 91//23
f 91//23 80//23 81//23
f 64//20 92//20 62//20
f 92//20 64//20 93//20
f 93//20 64//20 88//20
f 93//22 88//22 94//22
f 93//22 94//22 95//22
f 96//24 97//24 98//24
f 97//24 96//24 99//24
f 100//22 101//22 102//22
f 101//22 100//22 103//22
f 103//22 100//22 104//22
f 105//25 106//25 107//25
f 106//25 105//25 108//25
f 109//26 110//26 111//26
f 110//26 109//26 112//26
f 113//19 114//19 115//19
f 114//19 116//19 117//19
f 116//19 114//19 118//19
f 118//19 114//19 119//19
f 119//19 114//19 113//19
f 118//19 119//19 120//19
f 121//22 122//22 123//22
f 124//24 125//24 126//24
f 125//24 124//24 127//24
f 85//19 128//19 129//19
f 128//19 85//19 130//19
f 130//24 85//24 84//24
f 131//21 132//21 133//21
f 132//21 131//21 134//21
f 87//20 135//20 86//20
f 135//20 87//20 136//20
f 86//20 94//20 88//20
f 94//20 86//20 135//20
f 137//21 133//21 138//21
f 133//21 137//21 131//21
f 139//19 113//19 140//19
f 113//19 139//19 119//19
f 119//19 139//19 120//19
f 98//24 141//24 142//24
f 141//24 98//24 97//24
f 143//23 144//23 145//23
f 144//23 143//23 146//23
f 140//19 115//19 147//19
f 115//19 140//19 113//19
f 135//20 95//20 94//20
f 95//20 135//20 148//20
f 147//19 117//19 149//19
f 117//19 147//19 114//19
f 114//23 147//23 115//23
f 149//19 150//19 151//19
f 150//19 149//19 116//19
f 116//19 149//19 117//19
f 148//20 93//20 95//20
f 93//20 148//20 152//20
f 152//20 148//20 153//20
f 154//22 155//22 156//22
f 155//22 154//22 157//22
f 158//22 159//22 160//22
f 131//21 161//21 134//21
f 161//21 131//21 162//21
f 163//27 164//27 165//27
f 164//27 163//27 166//27
f 167//21 168//21 169//21
f 168//21 167//21 170//21
f 170//21 167//21 171//21
f 170//21 172//21 168//21
f 173//22 174//22 175//22
f 176//28 177//28 178//28
f 177//28 176//28 179//28
f 126//24 180//24 181//24
f 180//24 126//24 125//24
f 182//29 183//29 184//29
f 183//29 182//29 185//29
f 129//19 186//19 187//19
f 186//19 129//19 128//19
f 188//23 189//23 190//23
f 189//23 188//23 191//23
f 136//20 148//20 135//20
f 148//20 136//20 153//20
f 192//21 193//21 194//21
f 193//21 192//21 195//21
f 196//23 145//23 197//23
f 145//23 196//23 143//23
f 198//19 199//19 200//19
f 199//19 198//19 201//19
f 169//21 202//21 203//21
f 202//21 169//21 172//21
f 172//21 169//21 168//21
f 172//21 204//21 202//21
f 204//21 172//21 170//21
f 187//19 205//19 206//19
f 205//19 187//19 207//19
f 207//19 187//19 186//19
f 208//24 181//24 209//24
f 181//24 208//24 126//24
f 210//22 211//22 212//22
f 213//30 214//30 215//30
f 214//30 213//30 216//30
f 217//23 191//23 188//23
o group_0_ID4
v 7.620000 0.085387 -7.317379
v -7.620000 0.085387 7.922620
v -7.620000 0.085387 -7.317379
v 7.620000 0.085387 7.922620
vn 0.0000 -1.0000 0.0000
usemtl material
s off
f 218//31 219//31 220//31
f 219//31 218//31 221//31
